PathFileType	4	(X/Y/Z)	 s09c0403.trc
DataRate	CameraRate	NumFrames	NumMarkers	Units	OrigDataRate	OrigDataStartFrame	OrigNumFrames
200	200	5	50	mm	200	1501	2000
Frame#	Time	racr			lacr			c7			jug			rlel			rdr			llel			ldr			s2			lic			ric			lasi			rasi			rpsi			lpsi			rgt			lgt			rth1			rth2			rth3			rth4			rlfc			rmfc			rsh1			rsh2			rsh3			rsh4			rlmal			rmmal			rcal			rtoe			rmt5			lth1			lth2			lth4			lth3			llfc			lmfc			llmal			lmmal			lcal			lmt5			lsh1			lsh2			lsh3			lsh4			ltoe			SBIKE			LBIKE			RBIKE			
		X1	Y1	Z1	X2	Y2	Z2	X3	Y3	Z3	X4	Y4	Z4	X5	Y5	Z5	X6	Y6	Z6	X7	Y7	Z7	X8	Y8	Z8	X9	Y9	Z9	X10	Y10	Z10	X11	Y11	Z11	X12	Y12	Z12	X13	Y13	Z13	X14	Y14	Z14	X15	Y15	Z15	X16	Y16	Z16	X17	Y17	Z17	X18	Y18	Z18	X19	Y19	Z19	X20	Y20	Z20	X21	Y21	Z21	X22	Y22	Z22	X23	Y23	Z23	X24	Y24	Z24	X25	Y25	Z25	X26	Y26	Z26	X27	Y27	Z27	X28	Y28	Z28	X29	Y29	Z29	X30	Y30	Z30	X31	Y31	Z31	X32	Y32	Z32	X33	Y33	Z33	X34	Y34	Z34	X35	Y35	Z35	X36	Y36	Z36	X37	Y37	Z37	X38	Y38	Z38	X39	Y39	Z39	X40	Y40	Z40	X41	Y41	Z41	X42	Y42	Z42	X43	Y43	Z43	X44	Y44	Z44	X45	Y45	Z45	X46	Y46	Z46	X47	Y47	Z47	X48	Y48	Z48	X49	Y49	Z49	X50	Y50	Z50	
1501	7.5050	757.164719	1238.830308	-103.671675	736.715200	1198.729368	-470.867496	755.077461	1288.185285	-291.997009	733.466590	1155.634791	-281.910654	575.029909	1093.315164	23.461006	693.481284	906.360399	-55.220429	497.457397	1053.655150	-534.903272	673.896436	909.503142	-448.684599	261.708137	1183.084816	-181.499893	367.374624	1166.411146	-360.387808	427.313524	1116.151140	-73.821934	389.684577	1095.324965	-352.076928	436.043468	1054.997091	-111.456370	310.837376	1196.863750	-126.159491	286.822397	1219.638190	-232.152143	353.178113	986.222109	-33.074903	316.078264	1066.744328	-403.381687	368.193500	860.430971	-53.232214	395.989185	778.164218	-68.749779	371.950451	693.229586	-75.953915	421.721508	781.081413	-94.587732	360.448222	601.120623	-107.344631	321.617620	587.061170	-200.939468	306.746955	517.497579	-67.586938	296.494043	429.099436	-80.534845	245.476118	358.010956	-74.092211	316.373354	423.573680	-114.498657	200.194732	265.404483	-70.892561	201.894308	274.388234	-146.310882	116.796160	270.977718	-107.660477	334.266489	119.827846	-133.402410	261.802386	148.228158	-61.343786	433.278992	983.671535	-404.332114	514.214429	957.948094	-396.163406	534.421365	985.431589	-378.748614	574.819581	891.235167	-398.268242	630.543493	814.082370	-386.229356	638.969568	787.286908	-283.533384	327.605305	602.266053	-409.006520	342.593836	602.150558	-335.919839	241.825151	612.265368	-371.787289	360.928936	484.494213	-431.524208	552.504036	757.836895	-408.456275	494.382853	692.564533	-404.387513	409.633958	665.465810	-407.256782	510.013468	669.560616	-377.534330	446.306746	448.375952	-361.389538	-64.679443	851.875150	-238.408578	20.948932	85.144629	-442.047924	21.175181	84.144932	-43.664332	
1502	7.5100	756.503219	1238.323505	-105.302712	737.686369	1196.247754	-472.049929	755.199917	1287.023200	-293.318575	733.023924	1154.346685	-282.971946	574.401507	1092.981468	22.124101	693.416044	906.216655	-55.733796	497.171823	1053.203260	-535.301640	673.770483	909.536661	-448.753327	262.116874	1184.988582	-181.215407	366.409955	1167.899862	-360.756021	427.766091	1117.500666	-74.838071	388.281259	1096.743051	-352.725960	436.096717	1056.033445	-112.799129	311.703437	1198.494477	-126.464346	287.329438	1221.422329	-231.955188	354.428475	987.801354	-32.918607	315.471907	1068.457614	-403.652659	369.479265	861.648866	-53.566644	397.251502	779.416390	-69.510510	373.211159	694.464110	-76.521320	422.626797	782.372338	-95.619809	361.048252	602.240755	-106.919304	322.140106	588.536002	-201.032926	305.146434	519.664909	-67.623570	292.838710	431.577168	-80.491598	240.138395	361.613945	-74.110916	313.083772	425.627261	-114.474777	192.755253	270.099426	-70.776710	194.773950	278.857582	-146.337480	110.170879	277.088063	-108.463621	324.053476	121.816890	-133.208187	251.994951	151.738584	-61.241354	431.955470	985.158247	-404.639294	512.774377	959.413229	-396.826600	533.869725	986.496372	-380.104917	573.569847	892.737725	-398.782903	630.021059	816.110605	-387.188222	639.552032	789.179280	-284.316349	331.999182	597.343833	-409.130748	346.726893	597.998065	-336.076759	245.550071	604.297298	-372.040159	369.651810	481.396306	-431.824307	553.302570	758.184122	-409.194908	496.607122	691.566651	-405.138825	412.420200	662.889544	-407.814857	512.850896	668.964556	-378.226265	456.281675	448.924047	-362.082399	-64.700084	851.884596	-238.420244	20.945692	85.138994	-442.043421	21.125287	84.152959	-43.669252	
1503	7.5150	755.835959	1237.631272	-106.761881	739.358939	1193.174343	-472.689260	755.415082	1285.906120	-294.166794	732.484785	1153.293211	-283.873432	573.643916	1092.584145	20.815721	693.346310	906.117110	-56.167075	496.873387	1052.891471	-535.377716	673.567386	909.528278	-448.741739	262.338874	1187.072249	-181.130319	365.740992	1169.480976	-361.400982	428.134200	1119.169016	-75.767888	387.014845	1097.762590	-353.470299	436.098616	1057.281564	-113.935604	312.242235	1200.446305	-126.770636	287.210764	1223.537620	-232.231278	355.280182	989.616282	-32.968873	314.944345	1070.059888	-403.880068	370.924365	862.982360	-53.929688	398.920093	780.949624	-70.296183	374.412230	695.576297	-78.333009	424.040020	784.121210	-96.623306	362.315086	603.250654	-107.262167	323.666858	590.224445	-201.252882	304.241301	522.032439	-67.832338	289.754498	434.290171	-80.680471	235.344641	365.812272	-74.208019	310.065485	427.702268	-114.585692	185.733236	275.370216	-70.694076	188.489440	284.241739	-146.495529	103.446601	284.114220	-108.982046	314.050516	124.205064	-132.977364	242.561434	155.862445	-61.176315	428.800699	986.601463	-405.968989	511.187914	960.212875	-397.491058	530.856021	987.343944	-381.920474	571.731201	893.202787	-399.440072	629.093475	816.966184	-388.145642	639.657509	790.489647	-285.151648	335.874719	591.398796	-409.278905	350.424688	592.995711	-336.148306	248.732066	595.252929	-372.253998	378.042199	477.627541	-432.125083	553.585832	757.264892	-410.081587	498.362249	689.393047	-405.758693	414.758111	658.986935	-408.266963	515.027449	667.554523	-378.956084	466.092132	448.942353	-362.038206	-64.709816	851.880772	-238.475246	20.930866	85.145378	-442.057500	21.104215	84.157900	-43.705145	
1504	7.5200	755.261919	1236.840038	-107.931409	740.887644	1190.040308	-473.233454	755.614008	1284.951805	-294.846413	731.819690	1152.023408	-284.642448	572.789487	1092.068000	19.518368	693.288976	906.099778	-56.514411	496.787395	1052.569198	-535.841628	673.256887	909.459618	-448.719014	262.524526	1189.312025	-181.406619	365.077137	1171.019787	-362.231876	428.618718	1121.100021	-76.298012	386.017020	1098.837670	-354.098686	436.065251	1058.989024	-114.696939	312.664308	1202.617215	-127.378728	287.616776	1225.571424	-232.747825	355.651139	991.702199	-33.262690	314.483896	1071.585510	-404.028365	372.613990	864.661433	-53.739511	400.924835	782.733901	-71.096116	377.588686	697.311811	-78.498372	425.883297	786.101648	-97.571567	364.622872	604.480003	-107.771977	326.202180	592.152589	-201.665656	304.183990	524.852566	-68.055724	286.853611	437.174696	-81.300882	231.087344	370.654170	-74.209516	307.893769	429.782699	-114.702995	179.378305	281.173311	-70.678266	182.399111	289.840184	-146.648397	97.372696	291.548427	-109.178892	304.132063	127.088361	-132.859027	233.490532	160.449962	-61.108563	426.758824	987.174310	-406.251935	509.374519	959.829790	-397.619006	529.769122	986.100350	-383.503942	569.326398	892.724756	-400.281311	628.054283	816.586655	-388.788383	639.585425	791.016821	-286.377977	339.386059	584.903546	-409.901429	354.110286	588.020249	-334.946544	251.613866	584.976723	-372.522117	385.876861	473.299881	-432.248255	553.360678	755.131948	-411.087257	499.312883	686.259039	-406.597104	416.593591	654.011439	-408.770243	516.628140	664.812107	-379.163816	475.683070	449.205328	-362.806883	-64.720113	851.891225	-238.513109	20.903151	85.152770	-442.084962	21.080798	84.142297	-43.730173	
1505	7.5250	754.654191	1236.053586	-108.774419	742.373994	1187.065906	-473.522666	755.959174	1284.039151	-295.016669	731.144900	1150.983746	-285.234694	571.893346	1091.415739	18.279602	693.226681	906.085399	-56.757378	496.729786	1052.336947	-536.226746	672.903906	909.311883	-448.538342	262.650774	1191.699066	-182.062942	364.623063	1172.440136	-363.328605	428.593450	1123.465871	-76.714573	385.849146	1100.366068	-354.507497	439.365085	1063.088544	-109.984813	312.972138	1204.817259	-128.359998	288.053068	1227.637511	-233.705617	355.744886	994.103642	-33.499907	314.031547	1073.009895	-404.228078	374.385206	866.370503	-54.309493	403.392872	784.702685	-71.829574	380.587657	699.059697	-79.769401	428.329357	788.463618	-98.274091	367.810231	605.745521	-108.242977	329.707712	594.237126	-202.085109	304.971490	527.759388	-68.355410	285.243649	440.786449	-81.433311	227.669554	375.661852	-74.306048	306.161649	432.481931	-114.716687	173.690266	287.587936	-70.521416	177.186010	296.181536	-146.808909	91.831185	299.737151	-109.602267	294.549640	130.340644	-132.594320	224.828246	165.589083	-61.038609	424.888121	986.764581	-406.115069	506.749392	958.805156	-399.037588	527.763272	985.175562	-384.923937	566.308776	891.185140	-401.292963	626.678806	815.175873	-389.192938	638.429833	790.371947	-287.302220	342.239219	576.936282	-410.129651	356.494119	580.786222	-335.100174	254.232675	573.760776	-372.855870	393.479667	467.973688	-432.436458	552.524855	751.955509	-412.153147	499.878215	681.861513	-407.232689	417.833746	648.054162	-409.390976	517.590230	661.168820	-379.521709	484.300444	448.386893	-363.103533	-64.727738	851.899291	-238.542137	20.887298	85.162946	-442.096332	21.068929	84.151262	-43.735453	
